<svg width="256" height="256" viewBox="0 0 32 32" fill="none" xmlns="http://www.w3.org/2000/svg">
<circle cx="16" cy="16" r="16" fill="white"/>
<path d="M9.84619 10.6724V12.9148C10.3529 12.6464 10.8558 12.6791 11.3547 12.6244V10.4082C10.8074 10.4082 10.3529 10.4129 9.84619 10.6724Z" fill="#E36E1B"/>
<path d="M14.2701 10.9204C13.7937 10.7485 13.3137 10.5983 12.8298 10.502V12.6926C13.3135 12.7807 13.7937 12.9226 14.2701 13.086V10.9204Z" fill="#E36E1B"/>
<path d="M12.829 14.8836V12.693C12.3415 12.6043 11.8503 12.5704 11.3552 12.6249V14.841C11.8503 14.7782 12.3415 14.8034 12.829 14.8836Z" fill="#E36E1B"/>
<path d="M9.84619 15.1585V17.4009C10.3529 17.1149 10.8558 17.1302 11.3547 17.0579V14.8418C10.8378 14.8844 10.3529 14.8812 9.84619 15.1585Z" fill="#E36E1B"/>
<path d="M12.8298 14.8857V17.0764C13.3135 17.1477 13.7937 17.273 14.2701 17.42V15.2544C13.7937 15.0992 13.3137 14.9655 12.8298 14.8857Z" fill="#E36E1B"/>
<path d="M11.3552 17.0599V19.276C11.8503 19.1958 12.3415 19.2042 12.829 19.2674V17.0767C12.3415 17.0049 11.8503 16.9881 11.3552 17.0596V17.0599Z" fill="#E36E1B"/>
<path d="M20.963 16.1066C21.5244 15.6375 21.84 14.8835 21.84 14.1083C21.84 12.9065 21.1028 12.4143 19.5684 12.262V11.2145C19.2421 11.1977 18.9139 11.1615 18.584 11.1105V12.1563C18.2759 12.1112 17.9664 12.0532 17.6552 11.9853V10.9314C17.3182 10.8551 16.9795 10.7675 16.6389 10.6729C16.6389 11.027 16.6389 11.3812 16.6389 11.7354C16.3209 11.6497 16.0011 11.5578 15.6797 11.4635V13.6055C15.2139 13.4328 14.7444 13.2495 14.2715 13.0873V15.2538C14.7444 15.4079 15.2139 15.583 15.6797 15.7475V17.8895C15.2139 17.7332 14.7444 17.566 14.2715 17.4201V19.5866C14.7444 19.7244 15.2139 19.8831 15.6797 20.0315C16.0011 20.1036 16.3209 20.1734 16.6389 20.2368C16.6389 20.591 16.6389 20.9452 16.6389 21.2994C16.9795 21.3645 17.3184 21.4227 17.6552 21.4698V20.4159C17.9664 20.462 18.2759 20.4986 18.584 20.5222V21.5679C18.9139 21.5904 19.2421 21.5979 19.5684 21.5865V20.5477C21.2699 20.4543 22.1542 19.1076 22.1542 17.7642C22.1542 16.7729 21.7009 16.2919 20.963 16.1061V16.1066ZM17.6581 13.708C17.9683 13.7712 18.2769 13.8244 18.5837 13.8651C18.7208 13.8831 18.8577 13.8987 18.9941 13.9114C19.0204 13.9138 19.0457 13.9166 19.0707 13.9198C19.077 13.9205 19.0831 13.9213 19.0894 13.922C19.1128 13.925 19.1356 13.9282 19.158 13.9317C19.1595 13.9317 19.1612 13.9322 19.1626 13.9324C19.1872 13.9364 19.2108 13.9406 19.2341 13.9453C19.2382 13.946 19.2421 13.947 19.2463 13.9478C19.2684 13.9522 19.2903 13.9572 19.3114 13.9624C19.3121 13.9624 19.3131 13.9626 19.3139 13.9629C19.3369 13.9686 19.3596 13.9748 19.3814 13.9812C19.3829 13.9817 19.3844 13.9822 19.3858 13.9825C19.4524 14.0025 19.5135 14.0265 19.5684 14.0545C19.8269 14.1853 19.9582 14.4095 19.9582 14.7401C19.9582 15.077 19.8269 15.3167 19.5684 15.4384C19.5132 15.4641 19.4522 15.4844 19.3856 15.4988C19.3841 15.499 19.3829 15.4995 19.3814 15.4998C19.3596 15.5045 19.3369 15.5085 19.3139 15.5119C19.3131 15.5119 19.3121 15.5119 19.3114 15.5122C19.2903 15.5151 19.2684 15.5176 19.2463 15.5196C19.2421 15.5199 19.2382 15.5203 19.2341 15.5206C19.2108 15.5223 19.1872 15.5238 19.1626 15.5243C19.1612 15.5243 19.1595 15.5243 19.158 15.5243C19.1356 15.5248 19.1128 15.5246 19.0897 15.5243C19.0834 15.5243 19.0773 15.5241 19.071 15.5238C19.0459 15.5228 19.0204 15.5216 18.9944 15.5196C18.858 15.5087 18.7211 15.4951 18.584 15.479C18.2769 15.4426 17.9683 15.3933 17.6583 15.3343V13.7085L17.6581 13.708ZM19.5682 18.8347C19.5482 18.8379 19.5281 18.8406 19.5074 18.8431C19.5013 18.8438 19.4952 18.8443 19.4892 18.8451C19.4741 18.8465 19.4588 18.848 19.4432 18.8493C19.4359 18.8498 19.4289 18.8503 19.4216 18.8508C19.406 18.8517 19.3902 18.8522 19.3744 18.8527C19.3676 18.8527 19.3608 18.8532 19.354 18.8532C19.3314 18.8537 19.3085 18.8537 19.2849 18.8532C19.052 18.8485 18.8183 18.8347 18.5837 18.8134C18.2766 18.7854 17.9681 18.7447 17.6581 18.6942V16.9839C17.9683 17.0387 18.2769 17.0838 18.5837 17.116C18.8183 17.1405 19.052 17.1576 19.2849 17.1657C19.3083 17.1665 19.3314 17.1677 19.354 17.169C19.3608 17.1695 19.3676 17.1699 19.3744 17.1702C19.3902 17.1712 19.406 17.1724 19.4216 17.1737C19.4289 17.1742 19.4361 17.1749 19.4434 17.1756C19.459 17.1771 19.4743 17.1786 19.4894 17.1804C19.4955 17.1811 19.5016 17.1816 19.5076 17.1823C19.5283 17.1848 19.5487 17.1875 19.5684 17.1908C20.0377 17.2616 20.2825 17.4969 20.2825 17.9767C20.2825 18.4522 20.0377 18.7552 19.5684 18.8342L19.5682 18.8347Z" fill="#E36E1B"/>
</svg>
