<svg width="32" height="32" viewBox="0 0 32 32" fill="none" xmlns="http://www.w3.org/2000/svg">
  <g clip-path="url(#clip0_30821_16995)">
  <rect width="32" height="32" rx="16" fill="#F5F6FF"/>
  <path d="M16 0.0136719C20.2399 0.0136719 24.3066 1.69723 27.3047 4.69531C30.3028 7.69339 31.9863 11.7601 31.9863 16C31.9863 20.2399 30.3028 24.3066 27.3047 27.3047C24.3066 30.3028 20.2399 31.9863 16 31.9863C11.7601 31.9863 7.69339 30.3028 4.69531 27.3047C1.69723 24.3066 0.0136719 20.2399 0.0136719 16C0.0136719 11.7601 1.69723 7.69339 4.69531 4.69531C7.69339 1.69723 11.7601 0.0136719 16 0.0136719Z" fill="black" stroke="black" stroke-width="0.0266667"/>
  <path d="M20.8959 15.9543C21.8953 15.1192 22.4571 13.777 22.4571 12.3969C22.4571 10.2575 21.1448 9.3814 18.4131 9.11023V7.24556C17.8323 7.21557 17.248 7.1512 16.6606 7.06037V8.92196C16.1122 8.84171 15.5612 8.73853 15.0072 8.61772V6.74158C14.4073 6.60577 13.8043 6.44968 13.1979 6.28125C13.1979 6.91177 13.1979 7.5954 13.1979 8.22593C12.3093 8.09175 8.9834 7.38003 8.9834 7.38003V10.6231C9.58391 10.7942 10.6226 11.0698 11.4904 11.2605V19.2833C10.6577 19.1093 9.64278 18.8193 8.9834 18.6309L8.9834 22.1493C9.82526 22.3945 10.6611 22.6771 11.4904 22.9412C12.0626 23.0695 12.6318 23.1939 13.1979 23.3067C13.1979 23.9373 13.1979 24.5678 13.1979 25.1983C13.8043 25.3143 14.4077 25.4179 15.0072 25.5017V23.6255C15.5612 23.7075 16.1122 23.7728 16.6606 23.8147V25.6763C17.248 25.7164 17.8323 25.7296 18.4131 25.7093V23.8601C21.4421 23.6939 23.0164 21.2966 23.0164 18.905C23.0164 17.1404 22.2095 16.285 20.8959 15.9543ZM15.0124 11.6844C15.5647 11.7968 16.1139 11.8916 16.6602 11.9639C16.9043 11.9961 17.148 12.0239 17.3908 12.0464C17.4375 12.0508 17.4826 12.0556 17.5271 12.0614C17.5384 12.0627 17.5492 12.064 17.5605 12.0653C17.602 12.0706 17.6427 12.0763 17.6825 12.0825L17.6907 12.0838C17.7345 12.0909 17.7764 12.0984 17.818 12.1068C17.8254 12.1081 17.8323 12.1099 17.8396 12.1112C17.879 12.1191 17.918 12.1279 17.9556 12.1372L17.96 12.1381C18.0011 12.1482 18.0413 12.1592 18.0803 12.1707L18.0881 12.1729C18.2067 12.2086 18.3153 12.2514 18.4131 12.3012C18.8733 12.534 19.107 12.9331 19.107 13.5217C19.107 14.1214 18.8733 14.5482 18.4131 14.7647C18.3149 14.8105 18.2063 14.8467 18.0877 14.8723L18.0803 14.874C18.0413 14.8824 18.0011 14.8895 17.96 14.8956L17.9556 14.8961C17.918 14.9014 17.879 14.9058 17.8396 14.9093C17.8323 14.9097 17.8254 14.9106 17.818 14.9111C17.7764 14.9141 17.7345 14.9168 17.6907 14.9177H17.6825C17.6427 14.9186 17.602 14.9181 17.5609 14.9177C17.5496 14.9177 17.5388 14.9172 17.5276 14.9168C17.483 14.915 17.4375 14.9128 17.3912 14.9093C17.1484 14.8899 16.9047 14.8656 16.6606 14.837C16.1139 14.7722 15.5647 14.6844 15.0128 14.5795L15.0124 11.6844ZM18.4127 20.8107C18.3772 20.8164 18.3413 20.8212 18.3045 20.8256C18.2937 20.827 18.2829 20.8279 18.272 20.8292C18.2452 20.8318 18.2179 20.8345 18.1902 20.8367C18.1773 20.8376 18.1647 20.8384 18.1517 20.8393C18.124 20.8411 18.0959 20.842 18.0677 20.8428C18.0556 20.8428 18.0435 20.8437 18.0314 20.8437C17.9911 20.8446 17.9504 20.8446 17.9085 20.8437C17.4938 20.8353 17.0779 20.8107 16.6602 20.7727C16.1135 20.7229 15.5642 20.6506 15.0124 20.5607V17.5161C15.5647 17.6135 16.1139 17.6937 16.6602 17.7511C17.0779 17.7947 17.4938 17.8251 17.9085 17.8397C17.95 17.841 17.9911 17.8432 18.0314 17.8454C18.0435 17.8463 18.0556 17.8472 18.0677 17.8476C18.0959 17.8494 18.124 17.8516 18.1517 17.8538C18.1647 17.8547 18.1777 17.856 18.1907 17.8573C18.2184 17.86 18.2456 17.8626 18.2725 17.8657C18.2833 17.867 18.2941 17.8679 18.3049 17.8692C18.3417 17.8736 18.3781 17.8785 18.4131 17.8842C19.2485 18.0103 19.6844 18.4292 19.6844 19.2833C19.6844 20.1299 19.2481 20.67 18.4127 20.8107Z" fill="#E36E1B"/>
  </g>
  <defs>
  <clipPath id="clip0_30821_16995">
  <rect width="32" height="32" rx="16" fill="white"/>
  </clipPath>
  </defs>
  </svg>
  