<svg width="256" height="256" viewBox="0 0 33 32" fill="none" xmlns="http://www.w3.org/2000/svg">
<g clip-path="url(#clip0_30821_16999)">
<rect x="0.76001" width="32" height="32" rx="16" fill="#F5F6FF"/>
<path d="M0.76001 16C0.76001 20.2435 2.44572 24.3131 5.4463 27.3137C8.44688 30.3143 12.5165 32 16.76 32C21.0035 32 25.0731 30.3143 28.0737 27.3137C31.0743 24.3131 32.76 20.2435 32.76 16C32.76 11.7565 31.0743 7.68687 28.0737 4.68629C25.0731 1.68571 21.0035 0 16.76 0C12.5165 0 8.44688 1.68571 5.4463 4.68629C2.44572 7.68687 0.76001 11.7565 0.76001 16Z" fill="black"/>
<path d="M32.12 16C32.12 11.9263 30.5017 8.01939 27.6212 5.13883C24.7406 2.25827 20.8337 0.64 16.76 0.64C12.6863 0.64 8.7794 2.25827 5.89884 5.13883C3.01828 8.01939 1.40001 11.9263 1.40001 16C1.40001 20.0737 3.01828 23.9806 5.89884 26.8612C8.7794 29.7417 12.6863 31.36 16.76 31.36V32C12.5497 32 8.51049 30.3405 5.51683 27.3838L5.44631 27.3137C2.44573 24.3131 0.76001 20.2435 0.76001 16C0.76001 11.7897 2.41948 7.75048 5.37621 4.75682L5.44631 4.6863C8.44689 1.68572 12.5165 0 16.76 0C21.0035 0 25.0731 1.68572 28.0737 4.6863C31.0743 7.68688 32.76 11.7565 32.76 16C32.76 20.2435 31.0743 24.3131 28.0737 27.3137C25.0731 30.3143 21.0035 32 16.76 32V31.36C20.8337 31.36 24.7406 29.7417 27.6212 26.8612C30.5017 23.9806 32.12 20.0737 32.12 16Z" fill="#E36E1B"/>
<path d="M21.6559 15.9543C22.6553 15.1192 23.2171 13.777 23.2171 12.3969C23.2171 10.2575 21.9048 9.3814 19.1732 9.11023V7.24556C18.5923 7.21557 18.008 7.1512 17.4206 7.06037V8.92196C16.8722 8.84171 16.3212 8.73853 15.7672 8.61772V6.74158C15.1673 6.60577 14.5643 6.44968 13.9579 6.28125C13.9579 6.91177 13.9579 7.5954 13.9579 8.22593C13.0693 8.09175 9.74341 7.38003 9.74341 7.38003V10.6231C10.3439 10.7942 11.3826 11.0698 12.2504 11.2605V19.2833C11.4177 19.1093 10.4028 18.8193 9.74341 18.6309L9.74341 22.1493C10.5853 22.3945 11.4211 22.6771 12.2504 22.9412C12.8226 23.0695 13.3918 23.1939 13.9579 23.3067C13.9579 23.9373 13.9579 24.5678 13.9579 25.1983C14.5643 25.3143 15.1677 25.4179 15.7672 25.5017V23.6255C16.3212 23.7075 16.8722 23.7728 17.4206 23.8147V25.6763C18.008 25.7164 18.5923 25.7296 19.1732 25.7093V23.8601C22.2021 23.6939 23.7764 21.2966 23.7764 18.905C23.7764 17.1404 22.9696 16.285 21.6559 15.9543ZM15.7724 11.6844C16.3247 11.7968 16.8739 11.8916 17.4202 11.9639C17.6643 11.9961 17.908 12.0239 18.1508 12.0464C18.1975 12.0508 18.2426 12.0556 18.2871 12.0614C18.2984 12.0627 18.3092 12.064 18.3205 12.0653C18.362 12.0706 18.4027 12.0763 18.4425 12.0825L18.4508 12.0838C18.4945 12.0909 18.5365 12.0984 18.578 12.1068C18.5854 12.1081 18.5923 12.1099 18.5997 12.1112C18.639 12.1191 18.678 12.1279 18.7157 12.1372L18.72 12.1381C18.7611 12.1482 18.8014 12.1592 18.8403 12.1707L18.8481 12.1729C18.9667 12.2086 19.0753 12.2514 19.1732 12.3012C19.6333 12.534 19.867 12.9331 19.867 13.5217C19.867 14.1214 19.6333 14.5482 19.1732 14.7647C19.0749 14.8105 18.9663 14.8467 18.8477 14.8723L18.8403 14.874C18.8014 14.8824 18.7611 14.8895 18.72 14.8956L18.7157 14.8961C18.678 14.9014 18.639 14.9058 18.5997 14.9093C18.5923 14.9097 18.5854 14.9106 18.578 14.9111C18.5365 14.9141 18.4945 14.9168 18.4508 14.9177H18.4425C18.4027 14.9186 18.362 14.9181 18.3209 14.9177C18.3097 14.9177 18.2988 14.9172 18.2876 14.9168C18.243 14.915 18.1975 14.9128 18.1512 14.9093C17.9084 14.8899 17.6647 14.8656 17.4206 14.837C16.8739 14.7722 16.3247 14.6844 15.7728 14.5795L15.7724 11.6844ZM19.1727 20.8107C19.1372 20.8164 19.1013 20.8212 19.0645 20.8256C19.0537 20.827 19.0429 20.8279 19.0321 20.8292C19.0052 20.8318 18.978 20.8345 18.9503 20.8367C18.9373 20.8376 18.9247 20.8384 18.9117 20.8393C18.884 20.8411 18.8559 20.842 18.8278 20.8428C18.8156 20.8428 18.8035 20.8437 18.7914 20.8437C18.7511 20.8446 18.7105 20.8446 18.6685 20.8437C18.2538 20.8353 17.8379 20.8107 17.4202 20.7727C16.8735 20.7229 16.3242 20.6506 15.7724 20.5607V17.5161C16.3247 17.6135 16.8739 17.6937 17.4202 17.7511C17.8379 17.7947 18.2538 17.8251 18.6685 17.8397C18.71 17.841 18.7511 17.8432 18.7914 17.8454C18.8035 17.8463 18.8156 17.8472 18.8278 17.8476C18.8559 17.8494 18.884 17.8516 18.9117 17.8538C18.9247 17.8547 18.9377 17.856 18.9507 17.8573C18.9784 17.86 19.0057 17.8626 19.0325 17.8657C19.0433 17.867 19.0541 17.8679 19.065 17.8692C19.1017 17.8736 19.1381 17.8785 19.1732 17.8842C20.0085 18.0103 20.4444 18.4292 20.4444 19.2833C20.4444 20.1299 20.0081 20.67 19.1727 20.8107Z" fill="#E36E1B"/>
</g>
<defs>
<clipPath id="clip0_30821_16999">
<rect x="0.76001" width="32" height="32" rx="16" fill="white"/>
</clipPath>
</defs>
</svg>
