<?xml version="1.0" encoding="UTF-8"?>
<svg id="Layer_2" data-name="Layer 2" xmlns="http://www.w3.org/2000/svg" viewBox="0 0 1597.12 451.53">
  <defs>
    <style>
      .cls-1 {
        fill: #231f20;
      }
    </style>
  </defs>
  <g id="Layer_1-2" data-name="Layer 1">
    <g>
      <g>
        <path class="cls-1" d="M0,10.67v90.57c20.85-10.84,41.54-9.52,62.07-11.73V0C39.55,0,20.85.19,0,10.67Z"/>
        <path class="cls-1" d="M181.97,20.69c-19.6-6.94-39.35-13.01-59.26-16.9v88.48c19.9,3.56,39.66,9.29,59.26,15.89V20.69Z"/>
        <path class="cls-1" d="M122.72,180.74v-88.48c-20.06-3.58-40.27-4.95-60.64-2.75v89.51c20.37-2.54,40.58-1.52,60.64,1.72Z"/>
        <path class="cls-1" d="M0,191.81v90.57c20.85-11.55,41.54-10.93,62.07-13.85v-89.51c-21.27,1.72-41.22,1.59-62.07,12.79Z"/>
        <path class="cls-1" d="M122.72,180.74v88.48c19.9,2.88,39.66,7.94,59.26,13.88v-87.47c-19.6-6.27-39.35-11.67-59.26-14.89Z"/>
        <path class="cls-1" d="M62.07,268.53v89.51c20.37-3.24,40.58-2.9,60.64-.35v-88.48c-20.06-2.9-40.27-3.58-60.64-.69Z"/>
        <path class="cls-1" d="M457.21,230.06c23.09-18.94,36.07-49.38,36.07-80.68,0-48.52-30.32-68.39-93.43-74.54v-42.29c-13.42-.68-26.92-2.14-40.49-4.2v42.22c-12.67-1.82-25.4-4.16-38.2-6.9V21.12c-13.86-3.08-27.79-6.62-41.8-10.44,0,14.3,0,28.6,0,42.9-13.08-3.46-26.23-7.17-39.45-10.98v86.48c-19.16-6.97-38.47-14.37-57.92-20.92v87.47c19.45,6.22,38.76,13.29,57.92,19.93v86.48c-19.16-6.31-38.47-13.06-57.92-18.95v87.47c19.45,5.56,38.76,11.97,57.92,17.96h0c13.22,2.91,26.37,5.73,39.45,8.29,0,14.3,0,28.6,0,42.9,14.01,2.63,27.95,4.98,41.8,6.88v-42.55c12.8,1.86,25.53,3.34,38.2,4.29v42.22c13.57.91,27.07,1.21,40.49.75v-41.94c69.98-3.77,106.35-58.14,106.35-112.38,0-40.02-18.64-59.44-48.99-66.94ZM321.28,133.22c12.76,2.55,25.45,4.7,38.07,6.34,5.64.73,11.27,1.36,16.88,1.87,1.08.1,2.12.21,3.15.34.26.03.51.06.77.09.96.12,1.9.25,2.82.39.06,0,.13.02.19.03,1.01.16,1.98.33,2.94.52.17.03.33.07.5.1.91.18,1.81.38,2.68.59.03,0,.07.01.1.02.95.23,1.88.48,2.78.74.06.02.12.04.18.05,2.74.81,5.25,1.78,7.51,2.91,10.63,5.28,16.03,14.33,16.03,27.68,0,13.6-5.4,23.28-16.03,28.19-2.27,1.04-4.78,1.86-7.52,2.44-.06.01-.11.03-.17.04-.9.19-1.83.35-2.78.49-.03,0-.07,0-.1.01-.87.12-1.77.22-2.68.3-.17.01-.33.03-.5.04-.96.07-1.93.13-2.94.15-.06,0-.13,0-.19,0-.92.02-1.86.01-2.81,0-.26,0-.51-.01-.77-.02-1.03-.04-2.08-.09-3.15-.17-5.61-.44-11.24-.99-16.88-1.64-12.63-1.47-25.32-3.46-38.07-5.84v-65.64ZM399.84,340.2c-.82.13-1.65.24-2.5.34-.25.03-.5.05-.75.08-.62.06-1.25.12-1.89.17-.3.02-.59.04-.89.06-.64.04-1.29.06-1.94.08-.28,0-.56.02-.84.02-.93.02-1.87.02-2.84,0-9.58-.19-19.19-.75-28.84-1.61-12.63-1.13-25.32-2.77-38.07-4.81v-69.05c12.76,2.21,25.45,4.03,38.07,5.33,9.65.99,19.26,1.68,28.84,2.01.96.03,1.91.08,2.84.13.28.02.56.04.84.05.65.04,1.3.09,1.94.14.3.02.6.05.9.08.64.06,1.27.12,1.89.19.25.03.5.05.75.08.85.1,1.69.21,2.5.34,19.3,2.86,29.37,12.36,29.37,31.73,0,19.2-10.07,31.43-29.37,34.62Z"/>
      </g>
      <g>
        <path class="cls-1" d="M623.35,151.01h72.78c7.21,0,14.02,1.4,20.43,4.19,6.4,2.8,11.95,6.59,16.64,11.36,4.69,4.78,8.43,10.37,11.23,16.78,2.79,6.4,4.19,13.21,4.19,20.43,0,8.3-1.99,16.42-5.95,24.35-1.08,1.99-1.99,3.43-2.71,4.33l-.81.81,1.62.81c9.02,5.41,16.1,12.58,21.24,21.51,5.14,8.93,7.71,18.72,7.71,29.36,0,7.76-1.53,15.2-4.6,22.32-3.07,7.13-7.26,13.44-12.58,18.94-5.32,5.5-11.59,9.88-18.8,13.12-7.22,3.25-14.97,4.87-23.27,4.87h-87.12v-193.18ZM696.13,225.68c2.71,0,5.32-.54,7.85-1.62,2.52-1.08,4.82-2.57,6.9-4.46,2.07-1.89,3.74-4.19,5.01-6.9,1.26-2.71,1.89-5.68,1.89-8.93,0-5.59-1.94-10.69-5.82-15.29-3.88-4.6-9.25-6.9-16.1-6.9h-41.94v43.83l42.21.27ZM653.93,313.35h56.55c4.15,0,7.98-.77,11.5-2.3,3.52-1.53,6.54-3.61,9.06-6.22,2.52-2.61,4.51-5.64,5.95-9.06,1.44-3.42,2.16-7.03,2.16-10.82s-.72-7.39-2.16-10.82c-1.45-3.42-3.43-6.45-5.95-9.06-2.53-2.61-5.55-4.69-9.06-6.22-3.52-1.53-7.35-2.3-11.5-2.3h-56.55v56.82Z"/>
        <path class="cls-1" d="M821.68,162.91c0,5.05-1.76,9.33-5.28,12.85-3.52,3.52-7.8,5.28-12.85,5.28s-9.6-1.76-13.12-5.28c-3.52-3.52-5.28-7.8-5.28-12.85s1.76-9.61,5.28-13.12c3.52-3.52,7.89-5.28,13.12-5.28s9.34,1.76,12.85,5.28c3.52,3.52,5.28,7.89,5.28,13.12ZM818.7,191.86v152.33h-30.57l-.27-152.33h30.84Z"/>
        <path class="cls-1" d="M916.92,344.19c-7.22,0-14.03-1.44-20.43-4.33-6.4-2.88-12.04-6.81-16.91-11.77-4.87-4.96-8.7-10.69-11.5-17.18-2.8-6.49-4.19-13.35-4.19-20.56v-77.38h-22.46v-30.84h22.46v-37.61h30.57v37.61h30.84v30.84h-30.84v77.92c0,2.89.54,5.68,1.62,8.39,1.08,2.71,2.61,5.14,4.6,7.3,1.98,2.16,4.33,3.88,7.03,5.14,2.71,1.26,5.68,1.89,8.93,1.89h21.1v30.57h-20.83Z"/>
        <path class="cls-1" d="M957.77,344.19v-199.68h30.84v199.68h-30.84Z"/>
        <path class="cls-1" d="M1166.65,344.19h-30.3v-14.07l-2.98,2.16c-6.68,4.87-13.98,8.66-21.92,11.36-7.94,2.71-16.15,4.06-24.62,4.06-11.19,0-21.65-2.12-31.39-6.36-9.74-4.24-18.18-10.01-25.3-17.32-7.13-7.31-12.76-15.78-16.91-25.43-4.15-9.65-6.22-19.89-6.22-30.71s2.07-21.1,6.22-30.84c4.15-9.74,9.83-18.26,17.05-25.57,7.21-7.3,15.69-13.03,25.43-17.18,9.74-4.15,20.11-6.22,31.12-6.22,10.1.18,18.85,1.62,26.24,4.33,7.39,2.71,14.34,6.49,20.83,11.36l2.43,2.16v-5.68h30.3v143.94ZM1136.34,267.89c0-7.39-1.35-14.11-4.06-20.16-2.71-6.04-6.36-11.23-10.96-15.56-4.6-4.33-9.88-7.71-15.83-10.15-5.95-2.44-12.18-3.65-18.67-3.65s-13.03,1.31-19.08,3.92c-6.05,2.62-11.36,6.13-15.96,10.55-4.6,4.42-8.21,9.65-10.82,15.69-2.62,6.05-3.92,12.49-3.92,19.35,0,7.22,1.4,13.89,4.19,20.02,2.79,6.13,6.49,11.41,11.09,15.83,4.6,4.42,9.88,7.85,15.83,10.28,5.95,2.44,12.08,3.65,18.4,3.65,7.39,0,14.16-1.4,20.29-4.19,6.13-2.79,11.36-6.49,15.69-11.09,4.33-4.6,7.71-9.88,10.15-15.83,2.44-5.95,3.65-12.18,3.65-18.67Z"/>
        <path class="cls-1" d="M1213.72,184.56l44.64,101.73,38.42-101.73h32.74l-60.61,160.72-.81,1.62-14.07,37.34-33.01.27,21.65-57.09-62.5-142.86h33.55Z"/>
        <path class="cls-1" d="M1362.81,275.74l.54,2.16c1.44,5.95,3.92,11.14,7.44,15.56,3.52,4.42,7.48,8.16,11.91,11.23,4.42,3.07,9.11,5.37,14.07,6.9,4.96,1.54,9.61,2.3,13.93,2.3,9.74,0,18.17-2.3,25.3-6.9,7.12-4.6,13.3-10.96,18.53-19.08l27.6,12.72c-4.51,8.3-9.7,15.2-15.56,20.7-5.86,5.5-12,9.97-18.4,13.39-6.4,3.43-12.9,5.86-19.48,7.3-6.59,1.45-13.03,2.16-19.35,2.16-10.46,0-20.43-2.12-29.9-6.36-9.47-4.24-17.81-9.96-25.03-17.18-7.22-7.21-12.94-15.56-17.18-25.03-4.24-9.47-6.36-19.43-6.36-29.9,0-11,2.03-21.42,6.09-31.25,4.06-9.83,9.65-18.49,16.77-25.97,7.12-7.48,15.56-13.39,25.3-17.72,9.74-4.33,20.29-6.49,31.66-6.49s21.6,2.12,31.25,6.36c9.65,4.24,18.08,9.97,25.3,17.18,7.21,7.22,12.89,15.65,17.05,25.3,4.15,9.65,6.22,19.98,6.22,30.98,0,1.08-.05,3.02-.14,5.82-.09,2.8-.23,4.73-.41,5.82h-127.17ZM1455.61,243.54c-1.62-3.61-3.7-7.12-6.22-10.55-2.53-3.42-5.64-6.54-9.34-9.34-3.7-2.79-7.98-5.05-12.85-6.76-4.87-1.71-10.37-2.57-16.5-2.57-4.51,0-9.02.63-13.53,1.89-4.51,1.26-8.75,3.16-12.72,5.68-3.97,2.53-7.58,5.64-10.82,9.33-3.25,3.7-5.95,7.98-8.12,12.85l-.27,1.35h91.18l-.81-1.89Z"/>
        <path class="cls-1" d="M1539.76,184.56v11.36l2.98-1.89c4.87-2.88,10.05-5.18,15.56-6.9,5.5-1.71,11.32-2.57,17.45-2.57,3.61,0,7.21.27,10.82.81,3.61.54,7.12,1.26,10.55,2.16l-11.91,27.87c-1.26-.36-2.84-.58-4.73-.68-1.89-.09-3.2-.14-3.92-.14-5.23,0-10.1.99-14.61,2.98-4.51,1.99-8.39,4.69-11.63,8.12-3.25,3.43-5.82,7.4-7.71,11.91-1.89,4.51-2.84,9.38-2.84,14.61v91.99h-30.3v-159.63h30.3Z"/>
      </g>
    </g>
  </g>
</svg>