<?xml version="1.0" encoding="UTF-8"?>
<svg id="Layer_2" data-name="Layer 2" xmlns="http://www.w3.org/2000/svg" viewBox="0 0 476.54 564.48">
  <defs>
    <style>
      .cls-1 {
        fill: #e36e1b;
      }
    </style>
  </defs>
  <g id="Layer_1-2" data-name="Layer 1">
    <g>
      <g>
        <g>
          <path class="cls-1" d="M30.47,465.28h30.76c3.05,0,5.93.59,8.63,1.77,2.7,1.18,5.05,2.78,7.03,4.8,1.98,2.02,3.56,4.39,4.75,7.09,1.18,2.71,1.77,5.59,1.77,8.63,0,3.51-.84,6.94-2.52,10.29-.46.84-.84,1.45-1.14,1.83l-.34.34.69.34c3.81,2.29,6.8,5.32,8.98,9.09,2.17,3.77,3.26,7.91,3.26,12.41,0,3.28-.65,6.42-1.94,9.44-1.3,3.01-3.07,5.68-5.32,8.01-2.25,2.33-4.9,4.17-7.95,5.55-3.05,1.37-6.33,2.06-9.83,2.06H30.47v-81.66ZM61.24,496.84c1.14,0,2.25-.23,3.32-.69,1.07-.46,2.04-1.09,2.92-1.89.88-.8,1.58-1.77,2.12-2.92.53-1.14.8-2.4.8-3.77,0-2.36-.82-4.52-2.46-6.46-1.64-1.94-3.91-2.92-6.8-2.92h-17.73v18.53l17.84.11ZM43.4,533.9h23.9c1.75,0,3.37-.32,4.86-.97,1.49-.65,2.76-1.52,3.83-2.63,1.07-1.1,1.91-2.38,2.52-3.83.61-1.45.91-2.97.91-4.57s-.31-3.13-.91-4.57c-.61-1.45-1.45-2.73-2.52-3.83-1.07-1.1-2.34-1.98-3.83-2.63-1.49-.65-3.11-.97-4.86-.97h-23.9v24.02Z"/>
          <path class="cls-1" d="M67.3,547.44H29.97v-82.66h31.26c3.1,0,6.07.61,8.83,1.81,2.75,1.2,5.17,2.86,7.19,4.91,2.01,2.05,3.65,4.49,4.85,7.24,1.2,2.76,1.81,5.73,1.81,8.83,0,3.57-.86,7.11-2.57,10.52-.43.79-.8,1.39-1.11,1.8l.09.04c3.9,2.34,6.98,5.46,9.19,9.29,2.21,3.83,3.33,8.09,3.33,12.66,0,3.33-.67,6.57-1.99,9.63-1.32,3.05-3.14,5.8-5.42,8.16-2.28,2.36-5.01,4.26-8.1,5.65-3.1,1.4-6.48,2.1-10.04,2.1ZM30.97,546.44h36.33c3.42,0,6.66-.68,9.63-2.01,2.98-1.34,5.6-3.17,7.79-5.44,2.2-2.27,3.95-4.91,5.22-7.86,1.26-2.94,1.9-6.04,1.9-9.24,0-4.39-1.07-8.48-3.19-12.16-2.12-3.68-5.08-6.68-8.8-8.91l-1.27-.63.84-.83c.25-.32.62-.91,1.06-1.71,1.63-3.26,2.46-6.64,2.46-10.05,0-2.96-.58-5.8-1.73-8.43-1.15-2.64-2.72-4.97-4.65-6.94-1.93-1.96-4.24-3.54-6.88-4.7-2.63-1.15-5.47-1.73-8.43-1.73h-30.26v80.66ZM67.3,534.4h-24.4v-25.02h24.4c1.81,0,3.51.34,5.06,1.01,1.54.67,2.88,1.59,3.99,2.74,1.1,1.14,1.98,2.48,2.62,3.98.63,1.51.95,3.11.95,4.77s-.32,3.26-.95,4.77c-.63,1.5-1.51,2.84-2.62,3.98-1.11,1.15-2.45,2.07-3.99,2.74-1.54.67-3.24,1.01-5.06,1.01ZM43.9,533.4h23.4c1.68,0,3.25-.31,4.66-.93,1.42-.62,2.65-1.46,3.67-2.52,1.02-1.05,1.83-2.29,2.41-3.68.58-1.38.88-2.85.88-4.38s-.29-3-.88-4.38c-.58-1.39-1.4-2.62-2.41-3.68-1.02-1.05-2.25-1.9-3.67-2.52-1.42-.62-2.99-.93-4.66-.93h-23.4v23.02ZM61.24,497.34h0l-18.34-.12v-19.52h18.23c3.04,0,5.45,1.04,7.19,3.09,1.71,2.03,2.58,4.31,2.58,6.78,0,1.44-.29,2.78-.85,3.99-.56,1.2-1.31,2.23-2.23,3.07-.92.83-1.94,1.5-3.06,1.98-1.13.48-2.31.73-3.51.73ZM43.9,496.23l17.34.11c1.07,0,2.12-.22,3.12-.65,1.01-.43,1.94-1.04,2.78-1.8.82-.75,1.5-1.68,2-2.76.5-1.07.75-2.27.75-3.56,0-2.23-.79-4.3-2.34-6.14-1.56-1.84-3.66-2.74-6.42-2.74h-17.23v17.53Z"/>
        </g>
        <g>
          <path class="cls-1" d="M114.3,470.31c0,2.14-.74,3.95-2.23,5.43-1.49,1.49-3.3,2.23-5.43,2.23s-4.06-.74-5.55-2.23-2.23-3.3-2.23-5.43.74-4.06,2.23-5.55c1.49-1.49,3.33-2.23,5.55-2.23s3.95.74,5.43,2.23c1.49,1.49,2.23,3.34,2.23,5.55ZM113.05,482.55v64.39h-12.92l-.11-64.39h13.04Z"/>
          <path class="cls-1" d="M113.55,547.44h-13.92l-.12-65.39h14.04v65.39ZM100.62,546.44h11.92v-63.39h-12.04l.11,63.39ZM106.64,478.47c-2.34,0-4.32-.8-5.9-2.38-1.58-1.58-2.38-3.52-2.38-5.79s.8-4.32,2.38-5.9c1.58-1.58,3.56-2.38,5.9-2.38s4.21.8,5.79,2.38,2.38,3.56,2.38,5.9-.8,4.21-2.38,5.79c-1.58,1.58-3.52,2.38-5.79,2.38ZM106.64,463.03c-2.09,0-3.79.68-5.19,2.08-1.4,1.4-2.08,3.1-2.08,5.19s.68,3.68,2.08,5.08c1.4,1.4,3.1,2.08,5.19,2.08s3.68-.68,5.08-2.08c1.4-1.4,2.08-3.06,2.08-5.08s-.68-3.79-2.08-5.19-3.06-2.08-5.08-2.08Z"/>
        </g>
        <g>
          <path class="cls-1" d="M154.56,546.94c-3.05,0-5.93-.61-8.63-1.83-2.71-1.22-5.09-2.88-7.15-4.97-2.06-2.1-3.68-4.52-4.86-7.26-1.18-2.75-1.77-5.64-1.77-8.69v-32.71h-9.49v-13.04h9.49v-15.9h12.92v15.9h13.04v13.04h-13.04v32.94c0,1.22.23,2.4.69,3.55.46,1.14,1.1,2.17,1.94,3.09.84.91,1.83,1.64,2.97,2.17,1.14.53,2.4.8,3.77.8h8.92v12.92h-8.81Z"/>
          <path class="cls-1" d="M163.87,547.44h-9.31c-3.11,0-6.08-.63-8.84-1.87-2.75-1.24-5.21-2.95-7.3-5.08-2.09-2.13-3.76-4.62-4.96-7.42-1.2-2.79-1.81-5.78-1.81-8.89v-32.21h-9.49v-14.04h9.49v-15.9h13.92v15.9h13.04v14.04h-13.04v32.44c0,1.15.22,2.28.65,3.36.43,1.08,1.06,2.07,1.85,2.94.79.86,1.74,1.55,2.82,2.06,1.07.5,2.27.75,3.56.75h9.42v13.92ZM123.15,490.97h9.49v33.21c0,2.97.58,5.83,1.73,8.49,1.15,2.68,2.75,5.07,4.76,7.11,2.01,2.04,4.36,3.68,7,4.87,2.63,1.19,5.46,1.79,8.43,1.79h8.31v-11.92h-8.42c-1.44,0-2.78-.29-3.99-.85-1.2-.56-2.25-1.33-3.13-2.29-.87-.95-1.56-2.04-2.04-3.24-.48-1.2-.72-2.45-.72-3.73v-33.44h13.04v-12.04h-13.04v-15.9h-11.92v15.9h-9.49v12.04Z"/>
        </g>
        <g>
          <path class="cls-1" d="M171.83,546.94v-84.4h13.04v84.4h-13.04Z"/>
          <path class="cls-1" d="M185.37,547.44h-14.04v-85.4h14.04v85.4ZM172.33,546.44h12.04v-83.4h-12.04v83.4Z"/>
        </g>
        <g>
          <path class="cls-1" d="M260.12,546.94h-12.81v-5.95l-1.26.92c-2.82,2.06-5.91,3.66-9.26,4.8-3.36,1.14-6.82,1.72-10.41,1.72-4.73,0-9.15-.9-13.27-2.69-4.12-1.79-7.68-4.23-10.69-7.32-3.01-3.09-5.39-6.67-7.15-10.75-1.76-4.08-2.63-8.41-2.63-12.98s.88-8.92,2.63-13.04c1.75-4.12,4.15-7.72,7.2-10.81,3.05-3.09,6.63-5.51,10.75-7.26,4.12-1.75,8.5-2.63,13.15-2.63,4.27.08,7.97.69,11.09,1.83,3.13,1.14,6.06,2.74,8.81,4.8l1.03.91v-2.4h12.81v60.84ZM247.31,514.69c0-3.12-.57-5.96-1.72-8.52-1.14-2.55-2.69-4.75-4.63-6.58-1.94-1.83-4.17-3.26-6.69-4.29-2.52-1.03-5.15-1.54-7.89-1.54s-5.51.55-8.06,1.66c-2.56,1.11-4.8,2.59-6.75,4.46-1.94,1.87-3.47,4.08-4.57,6.63-1.11,2.56-1.66,5.28-1.66,8.18,0,3.05.59,5.87,1.77,8.46,1.18,2.59,2.75,4.82,4.69,6.69,1.94,1.87,4.17,3.32,6.69,4.35,2.52,1.03,5.11,1.54,7.78,1.54,3.13,0,5.98-.59,8.58-1.77,2.59-1.18,4.8-2.74,6.63-4.69,1.83-1.94,3.26-4.17,4.29-6.69,1.03-2.52,1.54-5.15,1.54-7.89Z"/>
          <path class="cls-1" d="M226.38,548.92c-4.77,0-9.3-.92-13.47-2.73-4.16-1.81-7.81-4.31-10.85-7.43-3.04-3.11-5.48-6.78-7.25-10.9-1.77-4.12-2.67-8.55-2.67-13.18s.9-9.08,2.67-13.23c1.77-4.15,4.23-7.84,7.31-10.96,3.08-3.12,6.75-5.6,10.91-7.37,4.16-1.77,8.65-2.67,13.35-2.67,4.32.08,8.11.7,11.27,1.86,3.16,1.16,6.16,2.79,8.93,4.87l.23.2v-1.79h13.81v61.84h-13.81v-5.46l-.46.34c-2.85,2.08-6.01,3.72-9.4,4.87-3.39,1.16-6.95,1.74-10.57,1.74ZM226.37,481.45c-4.55,0-8.91.87-12.95,2.59-4.04,1.72-7.6,4.13-10.59,7.15-2.99,3.03-5.38,6.61-7.1,10.65-1.72,4.03-2.59,8.35-2.59,12.84s.87,8.79,2.59,12.78c1.72,4.01,4.09,7.57,7.05,10.6,2.95,3.03,6.5,5.46,10.53,7.21,4.04,1.75,8.43,2.64,13.07,2.64,3.51,0,6.96-.57,10.25-1.69,3.29-1.12,6.36-2.71,9.13-4.73l2.05-1.49v6.43h11.81v-59.84h-11.81v3.01l-1.86-1.65c-2.66-1.99-5.58-3.58-8.65-4.71-3.06-1.12-6.73-1.72-10.93-1.8ZM226.27,536.23c-2.72,0-5.4-.53-7.97-1.58-2.56-1.05-4.87-2.55-6.85-4.45-1.98-1.9-3.59-4.21-4.8-6.84-1.21-2.64-1.82-5.56-1.82-8.67s.57-5.77,1.7-8.38c1.12-2.6,2.7-4.89,4.69-6.79,1.98-1.9,4.3-3.43,6.9-4.56,5.14-2.23,11.14-2.25,16.34-.12,2.56,1.05,4.87,2.52,6.84,4.39,1.98,1.87,3.58,4.13,4.75,6.74,1.17,2.61,1.76,5.54,1.76,8.72,0,2.8-.53,5.52-1.58,8.08-1.05,2.56-2.52,4.87-4.39,6.84-1.87,1.98-4.15,3.6-6.79,4.8-2.64,1.21-5.6,1.82-8.78,1.82ZM226.38,494.26c-2.74,0-5.38.54-7.86,1.62-2.49,1.08-4.71,2.54-6.6,4.36s-3.39,3.99-4.46,6.47c-1.07,2.48-1.62,5.16-1.62,7.98,0,2.97.58,5.74,1.73,8.26,1.15,2.52,2.69,4.72,4.58,6.54,1.89,1.82,4.09,3.24,6.53,4.24,2.45,1,5,1.51,7.59,1.51,3.04,0,5.86-.58,8.37-1.73,2.52-1.15,4.7-2.69,6.48-4.58,1.78-1.89,3.19-4.09,4.19-6.54,1-2.44,1.51-5.04,1.51-7.7,0-3.04-.56-5.84-1.67-8.32-1.11-2.48-2.63-4.64-4.52-6.42-1.89-1.78-4.09-3.19-6.54-4.19-2.44-1-5.03-1.51-7.7-1.51Z"/>
        </g>
        <g>
          <path class="cls-1" d="M280.02,479.46l18.87,43,16.24-43h13.84l-25.62,67.93-.34.69-5.95,15.78-13.95.11,9.15-24.13-26.42-60.38h14.18Z"/>
          <path class="cls-1" d="M282.38,564.48l9.33-24.62-26.64-60.9h15.27l.13.3,18.38,41.88,15.93-42.18h14.91l-25.87,68.61-.36.73-6.05,16.06-15.03.12ZM266.6,479.96l26.19,59.87-8.96,23.64,12.88-.11,5.83-15.46.36-.73,25.34-67.21h-12.77l-16.55,43.83-19.23-43.83h-13.09Z"/>
        </g>
        <g>
          <path class="cls-1" d="M343.03,518l.23.91c.61,2.52,1.66,4.71,3.15,6.58,1.49,1.87,3.16,3.45,5.03,4.75,1.87,1.3,3.85,2.27,5.95,2.92,2.1.65,4.06.97,5.89.97,4.12,0,7.68-.97,10.69-2.92,3.01-1.94,5.62-4.63,7.83-8.06l11.66,5.37c-1.91,3.51-4.1,6.42-6.58,8.75-2.48,2.33-5.07,4.21-7.78,5.66-2.71,1.45-5.45,2.48-8.23,3.09-2.78.61-5.51.91-8.18.91-4.42,0-8.63-.9-12.64-2.69-4-1.79-7.53-4.21-10.58-7.26-3.05-3.05-5.47-6.58-7.26-10.58-1.79-4-2.69-8.21-2.69-12.64,0-4.65.86-9.05,2.57-13.21,1.72-4.15,4.08-7.81,7.09-10.98,3.01-3.16,6.58-5.66,10.69-7.49,4.12-1.83,8.58-2.74,13.38-2.74s9.13.9,13.21,2.69c4.08,1.79,7.64,4.21,10.69,7.26,3.05,3.05,5.45,6.62,7.21,10.69,1.75,4.08,2.63,8.45,2.63,13.09,0,.46-.02,1.28-.06,2.46-.04,1.18-.1,2-.17,2.46h-53.75ZM382.26,504.39c-.69-1.52-1.56-3.01-2.63-4.46-1.07-1.45-2.38-2.76-3.95-3.95-1.56-1.18-3.37-2.13-5.43-2.86-2.06-.72-4.39-1.09-6.98-1.09-1.91,0-3.81.27-5.72.8-1.91.53-3.7,1.33-5.38,2.4-1.68,1.07-3.2,2.38-4.57,3.95-1.37,1.56-2.52,3.37-3.43,5.43l-.11.57h38.54l-.34-.8Z"/>
          <path class="cls-1" d="M362.7,547.44c-4.48,0-8.8-.92-12.84-2.73-4.04-1.81-7.65-4.28-10.73-7.37-3.08-3.08-5.56-6.68-7.37-10.73-1.81-4.05-2.73-8.37-2.73-12.84,0-4.69.88-9.2,2.61-13.4,1.73-4.2,4.15-7.94,7.19-11.13,3.04-3.2,6.69-5.75,10.85-7.6,4.16-1.85,8.73-2.79,13.58-2.79s9.28.92,13.41,2.73c4.12,1.81,7.77,4.29,10.85,7.37,3.08,3.08,5.54,6.73,7.31,10.85,1.77,4.12,2.67,8.6,2.67,13.29,0,.46-.02,1.29-.06,2.47-.04,1.22-.1,2.05-.18,2.53l-.07.42h-53.53l.07.29c.59,2.44,1.62,4.58,3.05,6.39,1.45,1.82,3.11,3.38,4.93,4.65,1.82,1.26,3.77,2.22,5.81,2.85,2.04.63,3.97.95,5.74.95,4,0,7.5-.95,10.42-2.84,2.94-1.9,5.52-4.56,7.69-7.91l.24-.36,12.54,5.78-.25.47c-1.92,3.54-4.17,6.52-6.67,8.88-2.5,2.35-5.15,4.28-7.88,5.74-2.73,1.46-5.55,2.52-8.36,3.14-2.8.61-5.59.93-8.28.93ZM363.27,479.85c-4.71,0-9.14.91-13.18,2.7-4.04,1.79-7.58,4.28-10.53,7.38-2.95,3.1-5.31,6.74-6.99,10.82-1.68,4.08-2.54,8.46-2.54,13.02s.89,8.51,2.64,12.43c1.76,3.93,4.17,7.44,7.16,10.43,2.99,2.99,6.5,5.4,10.43,7.16,6.29,2.82,13.26,3.33,20.5,1.74,2.73-.6,5.45-1.62,8.11-3.04,2.66-1.42,5.24-3.3,7.67-5.58,2.32-2.17,4.41-4.92,6.22-8.16l-10.78-4.97c-2.19,3.31-4.8,5.94-7.75,7.85-3.08,1.99-6.77,3-10.96,3-1.87,0-3.91-.33-6.04-.99-2.13-.66-4.18-1.66-6.08-2.98-1.9-1.32-3.63-2.95-5.14-4.85-1.53-1.92-2.62-4.2-3.24-6.77l-.38-1.53h53.95c.05-.46.08-1.12.11-1.98.04-1.17.06-1.99.06-2.44,0-4.56-.87-8.9-2.59-12.9-1.72-4-4.11-7.55-7.1-10.54-2.99-2.99-6.54-5.4-10.54-7.16-4-1.76-8.38-2.65-13.01-2.65ZM383.36,505.69h-39.91l.27-1.27c.93-2.09,2.11-3.96,3.51-5.56,1.4-1.59,2.97-2.95,4.68-4.04,1.71-1.09,3.56-1.92,5.51-2.46,1.94-.54,3.91-.82,5.85-.82,2.64,0,5.04.38,7.14,1.11,2.1.74,3.97,1.73,5.57,2.93,1.59,1.21,2.95,2.57,4.05,4.05,1.08,1.47,1.99,3,2.68,4.55h0s.64,1.51.64,1.51ZM344.69,504.69h37.15l-.04-.1c-.67-1.48-1.54-2.95-2.58-4.36-1.04-1.4-2.33-2.7-3.84-3.84-1.51-1.14-3.29-2.08-5.3-2.79-2-.7-4.29-1.06-6.81-1.06-1.85,0-3.73.26-5.58.78-1.85.52-3.61,1.31-5.24,2.34-1.63,1.04-3.13,2.34-4.47,3.85-1.3,1.49-2.41,3.22-3.29,5.17Z"/>
        </g>
        <g>
          <path class="cls-1" d="M417.83,479.46v4.8l1.26-.8c2.06-1.22,4.25-2.19,6.58-2.92,2.33-.72,4.78-1.09,7.38-1.09,1.52,0,3.05.11,4.57.34,1.52.23,3.01.53,4.46.92l-5.03,11.78c-.53-.15-1.2-.25-2-.29-.8-.04-1.35-.06-1.66-.06-2.21,0-4.27.42-6.18,1.26-1.91.84-3.55,1.98-4.92,3.43-1.37,1.45-2.46,3.13-3.26,5.03-.8,1.91-1.2,3.97-1.2,6.18v38.88h-12.81v-67.48h12.81Z"/>
          <path class="cls-1" d="M418.33,547.44h-13.81v-68.48h13.81v4.39l.49-.31c2.1-1.24,4.35-2.24,6.7-2.97,3.75-1.17,7.98-1.39,12.17-.76,1.53.23,3.05.54,4.51.93l.56.15-5.43,12.72-.42-.12c-.49-.14-1.13-.23-1.89-.27-.79-.04-1.33-.06-1.63-.06-2.13,0-4.14.41-5.97,1.22-1.83.81-3.44,1.92-4.75,3.32-1.32,1.4-2.39,3.04-3.16,4.88-.77,1.83-1.16,3.85-1.16,5.98v39.38ZM405.52,546.44h11.81v-38.38c0-2.27.42-4.41,1.24-6.37.82-1.96,1.95-3.7,3.36-5.18,1.41-1.49,3.12-2.68,5.08-3.54,1.96-.86,4.11-1.3,6.38-1.3.31,0,.87.02,1.68.06.65.03,1.21.1,1.69.2l4.63-10.85c-1.25-.31-2.54-.57-3.84-.76-4.04-.6-8.12-.39-11.73.73-2.27.71-4.45,1.67-6.47,2.87l-2.01,1.28v-5.21h-11.81v66.48Z"/>
        </g>
      </g>
      <g>
        <path class="cls-1" d="M0,10.05v85.26c19.63-10.2,39.11-8.96,58.44-11.04V0C37.23,0,19.63.18,0,10.05Z"/>
        <path class="cls-1" d="M171.31,19.48c-18.45-6.53-37.05-12.25-55.79-15.91v83.29c18.74,3.35,37.33,8.75,55.79,14.96V19.48Z"/>
        <path class="cls-1" d="M115.53,170.15v-83.29c-18.88-3.37-37.91-4.66-57.09-2.59v84.27c19.18-2.4,38.21-1.43,57.09,1.62Z"/>
        <path class="cls-1" d="M0,180.57v85.26c19.63-10.87,39.11-10.29,58.44-13.03v-84.27c-20.02,1.62-38.81,1.5-58.44,12.04Z"/>
        <path class="cls-1" d="M115.53,170.15v83.29c18.74,2.71,37.33,7.48,55.79,13.06v-82.34c-18.45-5.9-37.05-10.99-55.79-14.01Z"/>
        <path class="cls-1" d="M58.44,252.8v84.27c19.18-3.05,38.21-2.73,57.09-.33v-83.29c-18.88-2.73-37.91-3.37-57.09-.65Z"/>
        <path class="cls-1" d="M430.43,216.58c21.73-17.83,33.96-46.48,33.96-75.96,0-45.68-28.55-64.38-87.96-70.18V30.64c-12.64-.64-25.34-2.02-38.12-3.96v39.75c-11.93-1.71-23.91-3.92-35.96-6.49V19.88c-13.05-2.9-26.16-6.23-39.36-9.83,0,13.46,0,26.93,0,40.39-12.32-3.26-24.69-6.75-37.14-10.34v81.41c-18.04-6.56-36.21-13.53-54.53-19.69v82.34c18.31,5.86,36.49,12.52,54.53,18.77v81.41c-18.04-5.94-36.21-12.29-54.53-17.84v82.34c18.31,5.23,36.49,11.27,54.53,16.91h0c12.44,2.74,24.82,5.39,37.14,7.81,0,13.46,0,26.93,0,40.39,13.19,2.48,26.31,4.69,39.36,6.48v-40.06c12.05,1.75,24.04,3.14,35.96,4.04v39.75c12.78.85,25.48,1.14,38.12.71v-39.49c65.88-3.55,100.12-54.74,100.12-105.79,0-37.68-17.55-55.95-46.12-63.02ZM302.46,125.42c12.01,2.4,23.96,4.43,35.84,5.97,5.31.69,10.61,1.28,15.89,1.76,1.01.09,2,.2,2.97.32.24.03.48.06.72.09.9.11,1.79.23,2.65.37.06,0,.12.02.18.03.95.15,1.87.32,2.77.49.16.03.32.06.47.1.86.17,1.7.35,2.52.55.03,0,.06.01.09.02.9.22,1.77.45,2.61.7.05.02.11.03.17.05,2.58.77,4.94,1.67,7.07,2.74,10,4.97,15.09,13.49,15.09,26.06,0,12.81-5.09,21.92-15.09,26.54-2.13.98-4.5,1.75-7.08,2.3-.05.01-.11.02-.16.04-.85.18-1.72.33-2.62.46-.03,0-.06,0-.09.01-.82.12-1.66.21-2.52.28-.16.01-.31.03-.47.04-.9.07-1.82.12-2.77.14-.06,0-.12,0-.18,0-.86.02-1.75.01-2.65,0-.24,0-.48-.01-.73-.02-.97-.03-1.95-.08-2.97-.16-5.29-.41-10.58-.93-15.89-1.55-11.89-1.38-23.83-3.26-35.84-5.5v-61.8ZM376.42,320.27c-.77.12-1.56.23-2.36.32-.23.03-.47.05-.7.07-.59.06-1.18.11-1.78.16-.28.02-.56.04-.84.05-.6.04-1.21.06-1.83.08-.26,0-.52.02-.79.02-.88.02-1.76.02-2.67,0-9.02-.18-18.07-.71-27.15-1.52-11.89-1.06-23.83-2.61-35.84-4.52v-65c12.01,2.08,23.96,3.79,35.84,5.02,9.09.94,18.14,1.59,27.15,1.89.91.03,1.8.07,2.67.12.27.02.53.03.79.05.61.04,1.23.08,1.82.13.28.02.56.05.84.07.6.05,1.19.12,1.78.18.23.03.47.05.7.08.8.1,1.59.2,2.36.32,18.17,2.7,27.65,11.64,27.65,29.87,0,18.08-9.48,29.59-27.65,32.6Z"/>
      </g>
    </g>
  </g>
</svg>